<svg width="356" height="357" viewBox="0 0 356 357" fill="none" xmlns="http://www.w3.org/2000/svg">
<path d="M286.958 356.838H290.194V278.377H286.958V356.838Z" fill="#8FFF00" fill-opacity="0.1"/>
<path d="M288.796 258.951C282.777 258.951 277.898 263.667 277.898 269.485C277.898 275.302 282.777 280.018 288.796 280.018C294.815 280.018 299.694 275.302 299.694 269.485C299.694 263.667 294.815 258.951 288.796 258.951Z" fill="#68794C" fill-opacity="0.69"/>
<path d="M204.97 356.838H209.285V278.377H204.97V356.838Z" fill="#8FFF00" fill-opacity="0.1"/>
<path d="M207.061 258.951C201.042 258.951 196.163 263.667 196.163 269.485C196.163 275.302 201.042 280.018 207.061 280.018C213.08 280.018 217.959 275.302 217.959 269.485C217.959 263.667 213.08 258.951 207.061 258.951Z" fill="#8FFF00" fill-opacity="0.1"/>
<path d="M61.4909 356.838H65.806L65.806 278.377H61.4909L61.4909 356.838Z" fill="#8FFF00" fill-opacity="0.1"/>
<path d="M63.5715 258.951C57.5527 258.951 52.6736 263.667 52.6736 269.485C52.6736 275.302 57.5527 280.018 63.5715 280.018C69.5903 280.018 74.4695 275.302 74.4695 269.485C74.4695 263.667 69.5903 258.951 63.5715 258.951Z" fill="#8FFF00" fill-opacity="0.1"/>
<path d="M123.51 107.969C117.491 107.969 112.612 112.685 112.612 118.503C112.612 124.32 117.491 129.036 123.51 129.036C129.529 129.036 134.408 124.32 134.408 118.503C134.408 112.685 129.529 107.969 123.51 107.969Z" fill="#8FFF00" fill-opacity="0.1"/>
<path d="M345.102 204.527C339.083 204.527 334.204 209.243 334.204 215.061C334.204 220.879 339.083 225.595 345.102 225.595C351.121 225.595 356 220.879 356 215.061C356 209.243 351.121 204.527 345.102 204.527Z" fill="#8FFF00" fill-opacity="0.1"/>
<path d="M121.595 127.282H125.424L125.424 311.331H207.061V315.031H121.595L121.595 127.282Z" fill="#8FFF00" fill-opacity="0.1"/>
<path d="M263.367 41.2564C257.349 41.2564 252.469 45.9725 252.469 51.7901C252.469 57.6076 257.349 62.3237 263.367 62.3237C269.386 62.3237 274.265 57.6076 274.265 51.7901C274.265 45.9725 269.386 41.2564 263.367 41.2564Z" fill="#68794C" fill-opacity="0.69"/>
<path d="M261.453 60.5681H265.281V244.619H346.919V248.319H261.453V60.5681Z" fill="#8FFF00" fill-opacity="0.1"/>
<path d="M10.898 123.77C4.87924 123.77 3.05176e-05 128.486 3.05176e-05 134.303C3.05176e-05 140.121 4.87924 144.837 10.898 144.837C16.9168 144.837 21.796 140.121 21.796 134.303C21.796 128.486 16.9168 123.77 10.898 123.77Z" fill="#68794C" fill-opacity="0.69"/>
<path d="M8.98376 143.082H12.812L12.812 327.131H65.3873V330.831H8.98376L8.98376 143.082Z" fill="#8FFF00" fill-opacity="0.1"/>
<path d="M343.188 225.596H347.016V317.105H288.796V313.405H343.188V225.596Z" fill="#8FFF00" fill-opacity="0.1"/>
<path d="M206.153 0C200.134 0 195.255 4.71608 195.255 10.5336C195.255 16.3512 200.134 21.0673 206.153 21.0673C212.172 21.0673 217.051 16.3512 217.051 10.5336C217.051 4.71608 212.172 0 206.153 0Z" fill="#8FFF00" fill-opacity="0.1"/>
<path d="M204.24 21.0678L208.068 21.0678V108.877H262.46V112.577L204.24 112.577V21.0678Z" fill="#8FFF00" fill-opacity="0.1"/>
<path d="M67.204 78.1241C61.1853 78.1241 56.3061 82.8401 56.3061 88.6577C56.3061 94.4752 61.1853 99.1913 67.204 99.1913C73.2228 99.1913 78.1019 94.4752 78.1019 88.6577C78.1019 82.8401 73.2228 78.1241 67.204 78.1241Z" fill="#8FFF00" fill-opacity="0.1"/>
<path d="M65.2894 99.1914H69.1177L69.1177 190.701H10.8977V187H65.2894L65.2894 99.1914Z" fill="#8FFF00" fill-opacity="0.1"/>
</svg>
