<svg width="794" height="593" viewBox="0 0 794 593" fill="none" xmlns="http://www.w3.org/2000/svg">
<g clip-path="url(#clip0)">
<path opacity="0.1" d="M461.321 90.7745C410.421 88.9472 361.938 71.9193 315.647 53.2897C269.356 34.6602 223.493 14.0359 173.816 4.15698C141.859 -2.19118 105.314 -3.12302 79.5687 14.662C54.786 31.7409 46.7828 61.2541 42.4825 88.5905C39.2433 109.178 37.3391 130.814 46.2066 150.114C52.3689 163.487 63.3092 174.735 70.8768 187.548C97.1912 232.145 78.606 287.131 50.0642 330.665C36.7137 351.093 21.164 370.574 10.842 392.32C0.519984 414.065 -4.25807 438.97 4.77105 461.145C13.7299 483.13 35.0625 499.612 58.1798 511.26C105.124 534.847 160.444 541.603 214.387 545.425C333.796 553.885 453.845 550.223 573.57 546.554C617.88 545.192 662.379 543.816 705.971 536.718C730.171 532.78 755.157 526.526 772.724 511.42C795.033 492.245 800.563 459.776 785.61 435.708C760.54 395.384 691.209 385.367 673.684 342.087C664.037 318.267 673.944 291.732 687.962 269.637C718.036 222.237 768.444 180.661 771.101 126.483C772.927 89.2748 748.693 52.0084 711.227 34.4054C671.949 15.9506 617.493 18.2729 588.516 48.8198C558.695 80.284 506.263 92.3906 461.321 90.7745Z" fill="#ABAEFF"/>
<path d="M580.815 97.603H247.475C239.791 97.603 233.562 104.057 233.562 112.017V533.799C233.562 541.76 239.791 548.213 247.475 548.213H580.815C588.498 548.213 594.727 541.76 594.727 533.799V112.017C594.727 104.057 588.498 97.603 580.815 97.603Z" fill="#1A1A1D"/>
<path opacity="0.1" d="M563.571 140.315H264.718V500.013H563.571V140.315Z" fill="#96CCA5" stroke="#96CCA5" stroke-miterlimit="10"/>
<path d="M414.145 539.652C421.169 539.652 426.863 533.753 426.863 526.475C426.863 519.198 421.169 513.299 414.145 513.299C407.121 513.299 401.427 519.198 401.427 526.475C401.427 533.753 407.121 539.652 414.145 539.652Z" fill="#96CCA5"/>
<path d="M414.145 130.174C412.958 130.167 411.799 129.795 410.815 129.106C409.832 128.417 409.067 127.442 408.618 126.303C408.169 125.164 408.056 123.913 408.293 122.707C408.53 121.502 409.106 120.396 409.949 119.53C410.792 118.664 411.864 118.076 413.029 117.84C414.195 117.605 415.401 117.732 416.497 118.207C417.592 118.681 418.527 119.481 419.184 120.506C419.841 121.53 420.19 122.734 420.188 123.964C420.185 124.783 420.026 125.593 419.721 126.349C419.416 127.104 418.97 127.79 418.409 128.367C417.847 128.943 417.182 129.4 416.45 129.71C415.719 130.02 414.935 130.178 414.145 130.174Z" fill="#96CCA5"/>
<path d="M414.145 118.089C415.267 118.082 416.365 118.42 417.3 119.061C418.236 119.703 418.966 120.617 419.399 121.69C419.831 122.762 419.946 123.943 419.729 125.084C419.512 126.224 418.973 127.271 418.179 128.093C417.386 128.915 416.375 129.474 415.275 129.699C414.174 129.924 413.034 129.805 411.999 129.357C410.964 128.909 410.081 128.152 409.462 127.182C408.843 126.213 408.517 125.075 408.524 123.913C408.535 122.372 409.13 120.897 410.182 119.807C411.234 118.718 412.657 118.1 414.145 118.089ZM414.145 117.361C412.886 117.361 411.655 117.748 410.608 118.474C409.562 119.199 408.747 120.231 408.267 121.437C407.786 122.643 407.662 123.969 407.911 125.248C408.159 126.527 408.768 127.701 409.661 128.621C410.554 129.541 411.69 130.165 412.926 130.416C414.162 130.666 415.441 130.53 416.603 130.026C417.764 129.521 418.755 128.671 419.449 127.583C420.144 126.495 420.511 125.218 420.504 123.913C420.495 122.172 419.82 120.505 418.629 119.278C417.437 118.05 415.825 117.361 414.145 117.361Z" fill="#96CCA5"/>
<path d="M409.507 209.286V196.473H418.782V209.286H428.212V190.074H434.241L414.145 170.854L394.056 190.074H400.078V209.286H409.507Z" fill="#ABAEFF"/>
<path d="M310.173 268.836V255.004C310.173 254.225 309.874 253.478 309.343 252.927C308.811 252.376 308.09 252.066 307.338 252.066C306.586 252.066 305.865 252.376 305.333 252.927C304.801 253.478 304.502 254.225 304.502 255.004V268.836C303.384 269.486 302.505 270.501 302.003 271.724C301.501 272.947 301.405 274.307 301.729 275.593C302.053 276.878 302.779 278.016 303.794 278.828C304.809 279.64 306.055 280.081 307.338 280.081C308.62 280.081 309.866 279.64 310.881 278.828C311.896 278.016 312.622 276.878 312.946 275.593C313.271 274.307 313.174 272.947 312.672 271.724C312.17 270.501 311.291 269.486 310.173 268.836ZM306.358 255.004C306.378 254.753 306.489 254.52 306.668 254.349C306.847 254.179 307.081 254.085 307.324 254.085C307.567 254.085 307.801 254.179 307.979 254.349C308.158 254.52 308.269 254.753 308.29 255.004V258.105H306.358V255.004Z" fill="#96CCA5" stroke="#96CCA5" stroke-miterlimit="10"/>
<path opacity="0.3" d="M515.243 265.05H346.606V266.994H515.243V265.05Z" fill="#ABAEFF"/>
<path d="M398.679 270.634C401.136 270.634 403.127 268.571 403.127 266.026C403.127 263.481 401.136 261.418 398.679 261.418C396.223 261.418 394.232 263.481 394.232 266.026C394.232 268.571 396.223 270.634 398.679 270.634Z" fill="#ABAEFF"/>
<path d="M398.679 265.05H346.606V266.994H398.679V265.05Z" fill="#ABAEFF"/>
<path d="M308.318 336.424C308.287 336.164 308.162 335.925 307.97 335.756C307.777 335.586 307.531 335.497 307.278 335.506C307.048 335.5 306.822 335.574 306.637 335.716C306.452 335.859 306.319 336.062 306.259 336.292L305.233 342.073C305.205 342.219 305.191 342.368 305.191 342.517C305.191 343.096 305.413 343.652 305.809 344.061C306.204 344.471 306.74 344.701 307.299 344.701C307.858 344.701 308.394 344.471 308.79 344.061C309.185 343.652 309.407 343.096 309.407 342.517C309.405 342.337 309.381 342.159 309.337 341.985L308.318 336.424ZM316.3 338.906C316.192 338.815 316.076 338.732 315.956 338.658L311.796 335.688C311.638 335.567 311.445 335.506 311.248 335.516C311.052 335.527 310.866 335.608 310.721 335.746C310.592 335.865 310.509 336.028 310.488 336.205C310.468 336.382 310.51 336.561 310.609 336.707L313.813 340.821C313.875 340.917 313.945 341.007 314.023 341.09C314.339 341.372 314.742 341.528 315.158 341.528C315.575 341.528 315.978 341.372 316.293 341.09C316.443 340.953 316.562 340.785 316.644 340.597C316.726 340.409 316.769 340.205 316.769 339.998C316.769 339.791 316.726 339.587 316.644 339.399C316.562 339.211 316.443 339.043 316.293 338.906H316.3ZM319.111 334.662L315.211 334.516C315.094 334.497 314.974 334.526 314.877 334.596C314.78 334.667 314.713 334.774 314.691 334.895C314.676 335.009 314.699 335.126 314.755 335.226C314.811 335.326 314.897 335.404 315 335.448L318.773 336.555C319.322 336.678 319.933 336.416 319.933 335.827C319.933 335.099 319.729 334.727 319.111 334.654V334.662ZM299.731 335.448C299.835 335.404 299.921 335.326 299.977 335.226C300.033 335.126 300.055 335.009 300.041 334.895C300.017 334.773 299.949 334.666 299.85 334.596C299.752 334.525 299.632 334.497 299.514 334.516L295.621 334.662C294.996 334.735 294.813 335.091 294.813 335.827C294.813 336.409 295.41 336.678 295.951 336.555L299.724 335.441L299.731 335.448ZM302.915 335.681L298.755 338.644C298.635 338.716 298.522 338.798 298.418 338.891C298.268 339.028 298.148 339.196 298.066 339.384C297.984 339.573 297.942 339.777 297.942 339.983C297.942 340.19 297.984 340.394 298.066 340.582C298.148 340.771 298.268 340.939 298.418 341.075C298.727 341.368 299.13 341.529 299.549 341.529C299.967 341.529 300.371 341.368 300.68 341.075C300.764 340.999 300.837 340.911 300.898 340.813L304.102 336.715C304.2 336.568 304.243 336.389 304.222 336.212C304.202 336.035 304.119 335.872 303.99 335.754C303.844 335.607 303.653 335.52 303.451 335.506C303.249 335.493 303.048 335.555 302.886 335.681H302.915ZM307.369 316.491C307.369 316.491 309.196 318.675 309.196 320.517C309.227 320.915 309.178 321.316 309.053 321.694C308.928 322.072 308.729 322.42 308.469 322.715C308.209 323.01 307.892 323.246 307.54 323.409C307.188 323.572 306.807 323.658 306.421 323.662C306.026 323.661 305.636 323.578 305.273 323.419C304.91 323.259 304.581 323.026 304.306 322.733C304.031 322.44 303.815 322.093 303.672 321.712C303.528 321.332 303.459 320.925 303.47 320.517V320.087C301.764 322.234 300.835 324.929 300.842 327.709C300.842 329.497 301.527 331.212 302.747 332.476C303.968 333.74 305.623 334.451 307.348 334.451C309.074 334.451 310.729 333.74 311.949 332.476C313.169 331.212 313.855 329.497 313.855 327.709C313.855 323.167 311.691 317.845 307.341 316.491H307.369ZM307.137 331.924C306.451 331.932 305.79 331.658 305.298 331.161C304.807 330.664 304.526 329.986 304.517 329.275C304.515 328.621 304.748 327.99 305.17 327.505C305.592 327.019 306.173 326.713 306.8 326.646C308.264 326.399 309.597 325.626 310.566 324.462C310.885 325.568 311.046 326.716 311.044 327.87C311.044 328.943 310.633 329.973 309.9 330.732C309.167 331.491 308.174 331.917 307.137 331.917V331.924Z" fill="#96CCA5" stroke="#96CCA5" stroke-miterlimit="10"/>
<path opacity="0.3" d="M515.243 329.529H346.606V331.473H515.243V329.529Z" fill="#ABAEFF"/>
<path d="M438.028 335.113C440.484 335.113 442.476 333.05 442.476 330.505C442.476 327.96 440.484 325.897 438.028 325.897C435.572 325.897 433.58 327.96 433.58 330.505C433.58 333.05 435.572 335.113 438.028 335.113Z" fill="#ABAEFF"/>
<path d="M438.457 329.529H346.606V331.473H438.457V329.529Z" fill="#ABAEFF"/>
<path d="M303.477 405.285C303.478 405.617 303.606 405.934 303.833 406.168C304.059 406.403 304.365 406.535 304.685 406.537H309.997C310.317 406.535 310.624 406.403 310.85 406.168C311.076 405.934 311.204 405.617 311.206 405.285V404.164H303.477V405.285ZM307.341 382.513C302.528 382.513 298.649 386.262 298.649 390.9C298.659 392.282 299.004 393.64 299.653 394.848C300.301 396.057 301.232 397.077 302.359 397.816V400.531C302.365 400.695 302.401 400.856 302.467 401.004C302.532 401.153 302.625 401.287 302.741 401.399C302.856 401.511 302.992 401.597 303.14 401.655C303.288 401.712 303.445 401.738 303.603 401.732H311.079C311.237 401.738 311.395 401.712 311.542 401.655C311.69 401.597 311.826 401.511 311.942 401.399C312.057 401.287 312.15 401.153 312.216 401.004C312.281 400.856 312.318 400.695 312.323 400.531V397.816C313.453 397.079 314.386 396.059 315.036 394.851C315.685 393.642 316.031 392.283 316.04 390.9C316.04 386.262 312.154 382.513 307.341 382.513Z" fill="#96CCA5" stroke="#96CCA5" stroke-miterlimit="10"/>
<path opacity="0.3" d="M515.243 393.557H346.606V395.501H515.243V393.557Z" fill="#ABAEFF"/>
<path d="M481.593 399.133C484.049 399.133 486.04 397.07 486.04 394.525C486.04 391.98 484.049 389.917 481.593 389.917C479.136 389.917 477.145 391.98 477.145 394.525C477.145 397.07 479.136 399.133 481.593 399.133Z" fill="#ABAEFF"/>
<path d="M482.021 393.557H346.606V395.501H482.021V393.557Z" fill="#ABAEFF"/>
<path d="M301.544 443.447V457.454H305.409V469.466L313.138 453.45H309.274L313.138 443.447H301.544Z" fill="#96CCA5" stroke="#96CCA5" stroke-miterlimit="10"/>
<path opacity="0.3" d="M515.243 455.488H346.606V457.432H515.243V455.488Z" fill="#ABAEFF"/>
<path d="M398.679 461.065C401.136 461.065 403.127 459.001 403.127 456.456C403.127 453.911 401.136 451.848 398.679 451.848C396.223 451.848 394.232 453.911 394.232 456.456C394.232 459.001 396.223 461.065 398.679 461.065Z" fill="#ABAEFF"/>
<path d="M398.679 455.488H346.606V457.432H398.679V455.488Z" fill="#ABAEFF"/>
<path d="M241.769 576.562C264.848 576.562 283.556 572.833 283.556 568.233C283.556 563.634 264.848 559.905 241.769 559.905C218.691 559.905 199.983 563.634 199.983 568.233C199.983 572.833 218.691 576.562 241.769 576.562Z" fill="#ABAEFF"/>
<path d="M241.074 571.291C243.759 571.291 245.936 568.338 245.936 564.695C245.936 561.053 243.759 558.1 241.074 558.1C238.388 558.1 236.211 561.053 236.211 564.695C236.211 568.338 238.388 571.291 241.074 571.291Z" fill="#524F39"/>
<path d="M241.074 563.225C243.759 563.225 245.936 560.272 245.936 556.629C245.936 552.986 243.759 550.033 241.074 550.033C238.388 550.033 236.211 552.986 236.211 556.629C236.211 560.272 238.388 563.225 241.074 563.225Z" fill="#524F39"/>
<path d="M241.074 555.166C243.759 555.166 245.936 552.213 245.936 548.57C245.936 544.927 243.759 541.974 241.074 541.974C238.388 541.974 236.211 544.927 236.211 548.57C236.211 552.213 238.388 555.166 241.074 555.166Z" fill="#524F39"/>
<path d="M241.074 547.1C243.759 547.1 245.936 544.147 245.936 540.504C245.936 536.861 243.759 533.908 241.074 533.908C238.388 533.908 236.211 536.861 236.211 540.504C236.211 544.147 238.388 547.1 241.074 547.1Z" fill="#524F39"/>
<path d="M241.074 539.033C243.759 539.033 245.936 536.08 245.936 532.438C245.936 528.795 243.759 525.842 241.074 525.842C238.388 525.842 236.211 528.795 236.211 532.438C236.211 536.08 238.388 539.033 241.074 539.033Z" fill="#524F39"/>
<path d="M241.074 530.967C243.759 530.967 245.936 528.014 245.936 524.371C245.936 520.729 243.759 517.776 241.074 517.776C238.388 517.776 236.211 520.729 236.211 524.371C236.211 528.014 238.388 530.967 241.074 530.967Z" fill="#524F39"/>
<path d="M241.074 522.901C243.759 522.901 245.936 519.948 245.936 516.305C245.936 512.662 243.759 509.709 241.074 509.709C238.388 509.709 236.211 512.662 236.211 516.305C236.211 519.948 238.388 522.901 241.074 522.901Z" fill="#524F39"/>
<path d="M259.28 461.123C259.943 460.244 260.549 459.319 261.092 458.356L248.304 456.172L262.132 456.282C263.457 453.291 264.179 450.052 264.255 446.763C264.331 443.474 263.759 440.203 262.575 437.15L244.039 447.123L261.142 434.092C259.539 431.222 257.384 428.724 254.809 426.755C252.234 424.786 249.295 423.387 246.176 422.646C243.057 421.904 239.823 421.837 236.678 422.447C233.532 423.057 230.541 424.332 227.892 426.192C225.243 428.052 222.991 430.457 221.278 433.258C219.566 436.059 218.428 439.195 217.936 442.472C217.444 445.748 217.609 449.095 218.42 452.302C219.231 455.51 220.671 458.51 222.65 461.115C221.62 462.471 220.73 463.935 219.994 465.483L236.591 474.416L218.898 468.308C217.656 472.112 217.348 476.177 218.004 480.135C218.659 484.094 220.256 487.82 222.65 490.978C219.948 494.539 218.268 498.816 217.802 503.32C217.335 507.824 218.101 512.373 220.011 516.447C221.922 520.521 224.901 523.956 228.607 526.359C232.313 528.763 236.596 530.037 240.968 530.037C245.34 530.037 249.624 528.763 253.33 526.359C257.036 523.956 260.015 520.521 261.925 516.447C263.836 512.373 264.602 507.824 264.135 503.32C263.669 498.816 261.989 494.539 259.287 490.978C262.514 486.722 264.269 481.467 264.269 476.054C264.269 470.642 262.514 465.386 259.287 461.13L259.28 461.123Z" fill="#ABAEFF"/>
<path opacity="0.1" d="M217.668 476.047C217.658 481.461 219.414 486.72 222.65 490.971C219.948 494.532 218.268 498.809 217.802 503.313C217.335 507.816 218.101 512.365 220.011 516.44C221.922 520.514 224.901 523.949 228.607 526.352C232.313 528.755 236.596 530.03 240.968 530.03C245.34 530.03 249.624 528.755 253.33 526.352C257.036 523.949 260.015 520.514 261.925 516.44C263.836 512.365 264.602 507.816 264.135 503.313C263.669 498.809 261.989 494.532 259.287 490.971C262.406 486.865 217.668 473.339 217.668 476.047Z" fill="black"/>
<path d="M150.312 508.821C185.991 508.821 214.914 503.059 214.914 495.95C214.914 488.842 185.991 483.079 150.312 483.079C114.633 483.079 85.7098 488.842 85.7098 495.95C85.7098 503.059 114.633 508.821 150.312 508.821Z" fill="#ABAEFF"/>
<path d="M151.387 500.682C155.539 500.682 158.905 496.116 158.905 490.483C158.905 484.85 155.539 480.284 151.387 480.284C147.235 480.284 143.869 484.85 143.869 490.483C143.869 496.116 147.235 500.682 151.387 500.682Z" fill="#524F39"/>
<path d="M151.387 488.212C155.539 488.212 158.905 483.645 158.905 478.012C158.905 472.379 155.539 467.813 151.387 467.813C147.235 467.813 143.869 472.379 143.869 478.012C143.869 483.645 147.235 488.212 151.387 488.212Z" fill="#524F39"/>
<path d="M151.387 475.741C155.539 475.741 158.905 471.175 158.905 465.542C158.905 459.909 155.539 455.342 151.387 455.342C147.235 455.342 143.869 459.909 143.869 465.542C143.869 471.175 147.235 475.741 151.387 475.741Z" fill="#524F39"/>
<path d="M151.387 463.27C155.539 463.27 158.905 458.704 158.905 453.071C158.905 447.438 155.539 442.872 151.387 442.872C147.235 442.872 143.869 447.438 143.869 453.071C143.869 458.704 147.235 463.27 151.387 463.27Z" fill="#524F39"/>
<path d="M151.387 450.807C155.539 450.807 158.905 446.241 158.905 440.608C158.905 434.975 155.539 430.408 151.387 430.408C147.235 430.408 143.869 434.975 143.869 440.608C143.869 446.241 147.235 450.807 151.387 450.807Z" fill="#524F39"/>
<path d="M151.387 438.336C155.539 438.336 158.905 433.77 158.905 428.137C158.905 422.504 155.539 417.938 151.387 417.938C147.235 417.938 143.869 422.504 143.869 428.137C143.869 433.77 147.235 438.336 151.387 438.336Z" fill="#524F39"/>
<path d="M151.387 425.866C155.539 425.866 158.905 421.299 158.905 415.666C158.905 410.033 155.539 405.467 151.387 405.467C147.235 405.467 143.869 410.033 143.869 415.666C143.869 421.299 147.235 425.866 151.387 425.866Z" fill="#524F39"/>
<path d="M123.232 330.337C122.202 328.981 121.263 327.553 120.421 326.064L140.194 322.708L118.819 322.875C116.768 318.253 115.647 313.247 115.527 308.161C115.406 303.075 116.287 298.018 118.116 293.297L146.799 308.709L120.365 288.557C122.846 284.128 126.181 280.276 130.161 277.239C134.141 274.202 138.681 272.046 143.5 270.905C148.318 269.764 153.312 269.663 158.17 270.607C163.028 271.551 167.647 273.52 171.739 276.393C175.831 279.266 179.309 282.98 181.956 287.305C184.604 291.629 186.364 296.472 187.127 301.532C187.891 306.592 187.641 311.76 186.395 316.715C185.148 321.671 182.93 326.308 179.88 330.337C181.481 332.446 182.857 334.728 183.983 337.144L158.329 350.976L185.684 341.461C187.603 347.341 188.077 353.624 187.064 359.742C186.05 365.86 183.581 371.619 179.88 376.5C184.06 382.006 186.661 388.621 187.384 395.587C188.108 402.552 186.925 409.588 183.971 415.89C181.016 422.192 176.41 427.506 170.678 431.223C164.947 434.941 158.321 436.912 151.559 436.912C144.797 436.912 138.171 434.941 132.44 431.223C126.708 427.506 122.102 422.192 119.148 415.89C116.193 409.588 115.01 402.552 115.734 395.587C116.457 388.621 119.058 382.006 123.239 376.5C118.245 369.919 115.53 361.79 115.53 353.419C115.53 345.047 118.245 336.919 123.239 330.337H123.232Z" fill="#ABAEFF"/>
<path opacity="0.1" d="M187.609 353.415C187.615 361.792 184.891 369.926 179.88 376.5C184.06 382.007 186.661 388.621 187.384 395.587C188.108 402.552 186.925 409.588 183.971 415.89C181.016 422.192 176.41 427.506 170.678 431.223C164.947 434.941 158.321 436.912 151.559 436.912C144.797 436.912 138.171 434.941 132.44 431.223C126.708 427.506 122.102 422.192 119.148 415.89C116.193 409.588 115.01 402.552 115.734 395.587C116.457 388.621 119.058 382.007 123.239 376.5C118.404 370.145 187.609 349.229 187.609 353.415Z" fill="black"/>
<path opacity="0.1" d="M619.742 593C658.16 593 689.304 586.155 689.304 577.712C689.304 569.269 658.16 562.424 619.742 562.424C581.323 562.424 550.179 569.269 550.179 577.712C550.179 586.155 581.323 593 619.742 593Z" fill="#ABAEFF"/>
<path d="M593.919 579.474C593.961 579.846 594.051 580.211 594.186 580.558C594.571 581.901 595.383 583.068 596.491 583.871C597.059 584.211 597.676 584.457 598.318 584.599C602.625 585.669 607.101 585.327 611.499 585.786C615.898 586.244 620.557 587.431 624.899 586.15C625.939 585.844 627.007 585.283 627.429 584.184C627.456 584.116 627.477 584.045 627.492 583.973C630.647 584.395 633.816 584.701 636.837 583.82C637.87 583.514 638.945 582.954 639.367 581.854C639.528 581.286 639.579 580.689 639.514 580.1C639.388 577.035 639.247 573.926 638.348 571.022C638.012 569.974 637.611 568.95 637.146 567.957C636.458 566.428 635.708 564.936 634.898 563.48L634.652 563.006C635.242 563.276 635.818 563.567 636.387 563.88C638.997 555.473 640.899 546.848 642.072 538.101C643.526 527.724 643.231 517.165 641.201 506.892C640.573 503.465 640.337 499.973 640.498 496.489C640.786 489.551 642.339 482.766 643.885 476.025C644.672 472.628 645.456 469.208 646.239 465.767C647.354 460.914 648.473 456.041 649.597 451.149C650.342 447.91 651.087 444.597 650.855 441.263C650.693 439.439 650.345 437.638 649.815 435.89C649.022 433.069 648.035 430.311 646.864 427.635C647.208 427.702 647.564 427.626 647.855 427.424C648.086 427.172 648.24 426.856 648.297 426.514L650.068 419.903C651.312 415.273 652.556 410.607 652.879 405.802C653.265 400.364 652.471 394.882 652.303 389.466C652.085 382.389 652.914 375.292 652.471 368.23C652.373 366.701 652.218 365.18 652.043 363.665C652.12 362.865 652.141 362.064 652.162 361.263C652.274 357.317 652.232 353.379 650.834 349.739C649.874 347.142 648.278 344.849 646.204 343.085C646.267 342.757 646.337 342.437 646.4 342.109L647.876 334.829C649.506 326.756 651.15 318.486 650.216 310.281C649.38 303.001 646.084 295.605 640.505 291.717L640.456 291.681L639.859 291.288L639.753 291.222C639.57 291.106 639.381 290.996 639.191 290.894L639.051 290.814C638.826 290.683 638.587 290.56 638.348 290.45C636.557 289.615 634.666 289.03 632.727 288.71L631.954 288.587C631.183 288.461 630.407 288.378 629.628 288.339H628.848C628.07 288.329 627.293 288.378 626.522 288.485C626.234 288.485 625.953 288.572 625.665 288.63L624.822 288.812C623.154 289.307 621.454 289.674 619.735 289.912C619.411 289.912 619.081 289.955 618.758 289.963C617.781 289.963 616.804 289.897 615.821 289.839C615.336 289.839 614.844 289.795 614.359 289.795C613.55 289.783 612.743 289.858 611.949 290.021C610.577 290.346 609.285 290.963 608.155 291.834C607.322 292.463 606.55 293.175 605.85 293.959C605.282 294.594 604.747 295.26 604.248 295.954C604.016 296.274 603.791 296.602 603.545 296.944L603.222 297.461C603.018 297.818 602.822 298.189 602.639 298.538C602.369 299.085 602.134 299.649 601.936 300.227C601.377 301.734 601.267 303.38 601.62 304.952C601.705 305.285 601.808 305.614 601.929 305.935C600.65 308.549 599.987 311.441 599.997 314.372C599.997 322.38 604.817 329.136 611.443 331.364C612.251 332.907 613.235 334.873 614.057 336.78C612.313 338.072 610.795 339.663 609.567 341.483C605.45 341.243 601.388 344.643 600.081 348.931C599.604 350.581 599.434 352.311 599.582 354.027C598.725 357.608 598.683 361.481 598.606 365.223C598.486 371.12 598.191 377.002 597.903 382.892C597.615 388.781 597.32 394.62 597.025 400.488C596.94 402.169 596.856 403.858 596.645 405.525C595.612 405.809 595.563 407.273 595.683 408.437C596.006 411.546 596.533 414.691 596.87 417.814C596.411 419.74 596.313 421.739 596.582 423.703L597.179 423.98C597.144 425.992 596.861 427.991 596.336 429.928C596.266 430.28 596.111 430.608 595.886 430.882C596.184 430.751 596.499 430.67 596.821 430.641C595.929 433.684 595.219 436.8 594.172 439.792C593.631 441.336 592.999 442.85 592.535 444.43C592.128 445.929 591.8 447.451 591.551 448.987C591.374 449.871 591.25 450.766 591.179 451.666C591.074 453.393 591.353 455.123 591.995 456.721C592.637 458.319 593.625 459.742 594.882 460.882C594.882 461.479 594.839 462.069 594.839 462.666C594.839 466.925 595.444 471.169 595.296 475.421C595.099 481.15 594.109 486.574 594.081 492.31C593.989 508.181 598.191 523.694 603.124 538.611C605.077 544.522 607.15 550.378 609.342 556.178C610.635 559.614 612.097 563.458 610.705 566.828C611.176 566.632 611.64 566.45 612.111 566.275C611.379 568.18 610.284 569.913 608.893 571.371C606.712 573.595 603.869 574.988 600.826 575.324C599.358 575.492 597.847 575.404 596.449 575.936C595.05 576.467 593.778 577.865 593.919 579.474ZM611.879 497.122C613.405 488.918 616.327 481.059 620.507 473.914L620.55 474.387C620.774 476.731 621.189 479.075 621.639 481.412C622.58 486.333 623.683 491.247 623.515 496.19C623.338 501.43 623.635 506.675 624.4 511.857C624.632 513.885 625.104 515.875 625.805 517.783C626.269 518.919 626.874 519.967 627.211 521.161C627.574 522.525 627.763 523.932 627.773 525.347C628.396 537.011 627.708 548.711 625.721 560.211C625.236 560.211 624.927 560.291 624.92 560.356C624.626 562.324 623.975 564.216 623.002 565.933L622.918 565.773C622.749 565.467 622.573 565.118 622.391 564.768L622.974 564.863C621.365 561.266 621.512 557.073 621.442 553.069C621.302 547.636 620.769 542.222 619.847 536.871C618.467 528.773 616.069 520.897 612.715 513.444C612.025 511.875 611.552 510.214 611.31 508.508C610.864 504.707 611.057 500.855 611.879 497.122ZM640.863 410.49C640.599 410.12 640.315 409.765 640.013 409.427C639.31 408.648 638.467 407.746 638.678 406.683C638.785 406.265 638.987 405.881 639.268 405.562C639.833 404.829 640.458 404.15 641.137 403.531L641.362 403.327C641.194 405.7 641.027 408.081 640.863 410.468V410.49Z" fill="url(#paint0_linear)"/>
<path d="M651.108 357.652L651.881 363.833C652.141 365.929 652.401 368.019 652.542 370.123C653.012 377.126 652.141 384.159 652.366 391.176C652.549 396.578 653.378 401.973 652.977 407.367C652.619 412.128 651.312 416.758 650.005 421.345L648.15 427.897C648.087 428.239 647.925 428.554 647.686 428.799C647.329 429.019 646.904 429.089 646.499 428.996L638.264 428.268C638.791 425.764 639.374 423.172 639.669 420.602C639.894 418.593 640.027 416.569 640.168 414.545C640.603 408.241 641.102 401.936 641.573 395.617L642.451 384.552C642.824 379.747 643.21 374.92 644.377 370.254C645.54 365.525 647.858 361.185 651.108 357.652Z" fill="#ABAEFF"/>
<path opacity="0.1" d="M651.108 357.652L651.881 363.833C652.141 365.929 652.401 368.019 652.542 370.123C653.012 377.126 652.141 384.159 652.366 391.176C652.549 396.578 653.378 401.973 652.977 407.367C652.619 412.128 651.312 416.758 650.005 421.345L648.15 427.897C648.087 428.239 647.925 428.554 647.686 428.799C647.329 429.019 646.904 429.089 646.499 428.996L638.264 428.268C638.791 425.764 639.374 423.172 639.669 420.602C639.894 418.593 640.027 416.569 640.168 414.545C640.603 408.241 641.102 401.936 641.573 395.617L642.451 384.552C642.824 379.747 643.21 374.92 644.377 370.254C645.54 365.525 647.858 361.185 651.108 357.652Z" fill="black"/>
<path d="M636.437 568.081C636.92 569.066 637.343 570.082 637.701 571.124C638.643 573.999 638.784 577.086 638.924 580.122C638.986 580.707 638.934 581.298 638.769 581.862C638.362 582.954 637.196 583.507 636.106 583.805C631.546 585.079 626.74 583.885 622.053 583.449C617.367 583.012 612.736 583.332 608.211 582.277C607.543 582.143 606.897 581.91 606.293 581.585C605.147 580.812 604.291 579.656 603.869 578.309C603.732 577.964 603.64 577.602 603.595 577.232C603.447 575.63 604.789 574.247 606.251 573.723C607.712 573.198 609.307 573.278 610.846 573.118C614.015 572.782 616.989 571.372 619.306 569.107C621.623 566.842 623.155 563.848 623.662 560.589C623.719 560.24 631.279 560.451 632.094 560.902C633.022 561.434 633.584 562.752 634.111 563.647C634.94 565.089 635.715 566.566 636.437 568.081Z" fill="#614F4F"/>
<path opacity="0.1" d="M636.437 568.081C636.92 569.066 637.343 570.082 637.701 571.124C638.643 573.999 638.784 577.086 638.924 580.122C638.986 580.707 638.934 581.298 638.769 581.862C638.362 582.954 637.196 583.507 636.106 583.805C631.546 585.079 626.74 583.885 622.053 583.449C617.367 583.012 612.736 583.332 608.211 582.277C607.543 582.143 606.897 581.91 606.293 581.585C605.147 580.812 604.291 579.656 603.869 578.309C603.732 577.964 603.64 577.602 603.595 577.232C603.447 575.63 604.789 574.247 606.251 573.723C607.712 573.198 609.307 573.278 610.846 573.118C614.015 572.782 616.989 571.372 619.306 569.107C621.623 566.842 623.155 563.848 623.662 560.589C623.719 560.24 631.279 560.451 632.094 560.902C633.022 561.434 633.584 562.752 634.111 563.647C634.94 565.089 635.715 566.566 636.437 568.081Z" fill="black"/>
<path d="M623.894 570.396C624.381 571.377 624.803 572.391 625.159 573.431C626.108 576.343 626.248 579.394 626.382 582.429C626.447 583.014 626.394 583.607 626.227 584.169C625.827 585.261 624.66 585.815 623.571 586.12C619.011 587.387 614.198 586.193 609.518 585.756C604.838 585.32 600.194 585.64 595.676 584.584C595.004 584.444 594.358 584.198 593.757 583.856C592.61 583.085 591.754 581.928 591.333 580.58C591.197 580.235 591.105 579.873 591.059 579.503C590.912 577.909 592.254 576.518 593.715 575.994C595.177 575.47 596.772 575.557 598.311 575.39C601.478 575.053 604.451 573.644 606.768 571.38C609.085 569.117 610.617 566.125 611.127 562.868C611.183 562.519 618.744 562.722 619.559 563.174C620.493 563.705 621.056 565.023 621.582 565.918C622.384 567.396 623.17 568.881 623.894 570.396Z" fill="#614F4F"/>
<path d="M591.2 493.06C591.101 508.792 595.514 524.168 600.693 538.924C602.744 544.777 604.92 550.579 607.22 556.331C608.583 559.738 610.122 563.523 608.661 566.887C612.877 565.227 617.163 564.251 621.597 565.016C619.91 561.449 620.072 557.299 619.995 553.368C619.851 547.98 619.297 542.612 618.336 537.315C616.848 529.253 614.297 521.441 610.755 514.099C610.039 512.551 609.544 510.903 609.286 509.207C608.71 505.465 609.16 501.621 609.911 497.916C611.529 489.731 614.603 481.93 618.976 474.911L619.018 475.377C619.28 477.718 619.66 480.044 620.156 482.344C621.147 487.214 622.306 492.092 622.131 496.991C621.947 502.186 622.258 507.388 623.058 512.52C623.316 514.535 623.824 516.507 624.569 518.387C625.054 519.516 625.686 520.571 626.065 521.743C626.445 523.092 626.644 524.488 626.656 525.893C627.218 537.737 626.656 549.764 624.323 561.376C628.237 561.055 632.15 562.227 635.65 564.047C638.386 555.736 640.385 547.183 641.622 538.495C643.147 528.22 642.837 517.743 640.709 507.584C640.045 504.196 639.798 500.735 639.971 497.283C640.273 490.403 641.903 483.676 643.526 476.993L646 466.801C647.171 461.948 648.342 457.116 649.513 452.307C650.293 449.096 651.08 445.813 650.834 442.508C650.663 440.694 650.295 438.907 649.738 437.179C647.984 431.301 645.36 425.741 641.959 420.697C628.419 421.483 614.718 420.173 601.206 419.095C600.55 418.961 599.871 419.08 599.294 419.43C598.834 419.915 598.559 420.557 598.521 421.236L593.441 451.084C592.63 455.233 592.16 459.446 592.036 463.678C592.036 467.9 592.668 472.108 592.514 476.323C592.268 482.002 591.228 487.374 591.2 493.06Z" fill="#333646"/>
<path opacity="0.1" d="M619.039 475.377C619.301 477.718 619.681 480.044 620.177 482.344C623.121 477.066 626.297 471.919 629.01 466.51C629.712 465.12 630.373 463.707 631.04 462.295L633.043 458.072C633.415 457.279 633.788 456.485 634.125 455.677C634.674 454.517 635.096 453.296 635.383 452.037C634.399 451.848 631.968 454.6 631.237 455.321C629.746 456.85 628.339 458.464 627.021 460.155C625.396 462.032 623.903 464.027 622.552 466.124C620.876 468.976 619.688 472.106 619.039 475.377Z" fill="black"/>
<path d="M607.726 330.57C607.726 330.57 615.245 342.983 613.853 345.582C612.462 348.181 637.533 343.274 637.533 343.274C637.533 343.274 623.88 330.862 625.279 325.664C626.677 320.466 607.726 330.57 607.726 330.57Z" fill="#C0A2A7"/>
<path d="M614.408 334.327C623.796 334.327 631.406 326.442 631.406 316.717C631.406 306.991 623.796 299.106 614.408 299.106C605.021 299.106 597.411 306.991 597.411 316.717C597.411 326.442 605.021 334.327 614.408 334.327Z" fill="#C0A2A7"/>
<path d="M607.473 343.587C609.29 340.963 611.76 338.897 614.619 337.61C616.265 336.999 617.968 336.565 619.699 336.314L626.48 335.077C628.138 334.771 629.916 334.487 631.462 335.193C632.243 335.608 632.955 336.152 633.57 336.802C635.924 339.066 638.207 341.549 641.166 342.859C641.974 343.216 642.817 343.478 643.625 343.835C646.934 345.291 649.408 348.392 650.806 351.843C652.282 355.439 652.324 359.348 652.211 363.258C652.213 364.607 652.084 365.953 651.825 367.276C651.487 368.536 651.057 369.767 650.539 370.96C649.61 373.51 648.831 376.116 648.206 378.764C646.45 385.729 644.988 392.766 643.822 399.876C643.723 400.895 643.434 401.883 642.971 402.788C642.316 403.693 641.524 404.483 640.625 405.125C639.911 405.732 639.255 406.407 638.664 407.141C638.371 407.451 638.156 407.831 638.039 408.248C637.821 409.296 638.741 410.199 639.444 410.963C640.956 412.562 642.049 414.534 642.62 416.693C642.972 417.136 643.153 417.699 643.126 418.273C642.98 418.671 642.924 419.1 642.964 419.525C643.103 419.911 643.321 420.262 643.604 420.551C643.928 420.989 644.158 421.493 644.28 422.031C644.401 422.568 644.41 423.126 644.306 423.667C639.04 426.038 633.403 427.404 627.668 427.7C626.262 427.773 624.857 427.773 623.452 427.948C622.454 428.079 621.47 428.29 620.472 428.414C619.024 428.554 617.569 428.593 616.116 428.53C608.548 428.37 600.763 428.173 593.814 425.065C593.16 421.374 594.572 417.61 595.458 413.97C596.863 408.146 597.214 402.184 598.268 396.309C598.971 392.298 600.025 388.344 600.622 384.304C601.22 380.264 601.36 376.078 600.285 372.146C599.336 368.667 599.048 365.114 598.065 361.641C597.081 358.169 596.392 354.405 597.503 350.969C598.88 346.732 603.145 343.347 607.473 343.587Z" fill="#ABAEFF"/>
<path d="M599.126 307.376C598.297 304.253 599.927 300.999 601.866 298.458C603.974 295.728 606.658 293.268 609.954 292.583C612.631 292.023 615.406 292.7 618.133 292.474C620.543 292.278 622.861 291.375 625.257 291.018C627.431 290.775 629.628 290.861 631.778 291.273C633.819 291.587 635.813 292.164 637.716 292.991C644.953 296.318 649.19 304.515 650.174 312.647C651.157 320.779 649.471 328.976 647.721 336.977L646.168 344.213C644.552 351.748 642.936 359.312 642.508 367.014C642.079 374.716 642.88 382.622 645.937 389.655C636.052 384.154 628.393 375.17 624.344 364.328C623.248 361.35 622.433 358.256 621.21 355.33C620.163 352.811 618.821 350.423 617.894 347.853C616.845 344.953 616.342 341.871 616.411 338.775C616.467 336.445 616.84 334.13 616.776 331.801C616.713 329.471 616.137 327.047 614.584 325.358C613.179 323.866 611.247 323.174 609.469 322.206C606.67 320.716 604.225 318.603 602.309 316.018C601.192 314.503 601.128 313.834 600.847 312.116C600.566 310.398 599.561 309.029 599.126 307.376Z" fill="#333646"/>
<path d="M599.105 439.661C598.929 441.474 599.245 443.301 598.866 445.099C598.578 446.439 597.91 447.647 597.517 448.958C597.127 450.471 596.927 452.029 596.919 453.595C596.863 454.906 596.961 456.507 598.086 457.119C598.578 457.388 599.168 457.388 599.681 457.621C600.194 457.854 600.629 458.487 600.334 458.982C600.039 459.477 599.533 459.397 599.069 459.492C598.606 459.587 598.107 460.082 598.367 460.482C598.473 460.613 598.615 460.707 598.774 460.751C599.243 460.901 599.689 461.122 600.095 461.407C600.294 461.557 600.45 461.76 600.545 461.995C600.64 462.229 600.672 462.487 600.636 462.739C600.608 462.859 600.554 462.972 600.478 463.068C600.401 463.163 600.305 463.24 600.197 463.292C600.088 463.344 599.969 463.369 599.849 463.367C599.729 463.364 599.612 463.334 599.505 463.278C599.711 463.734 599.824 464.23 599.835 464.734C598.037 465.534 596.02 464.486 594.334 463.474C593.604 463.053 592.9 462.586 592.226 462.076C590.861 460.991 589.774 459.577 589.059 457.956C588.344 456.336 588.022 454.559 588.122 452.78C588.202 451.886 588.336 450.999 588.523 450.123C588.782 448.596 589.127 447.087 589.555 445.602C590.04 444.037 590.701 442.544 591.27 441.008C592.478 437.739 593.258 434.318 594.355 431.005C594.428 430.662 594.614 430.356 594.882 430.139C595.123 430.016 595.393 429.963 595.662 429.986C596.892 429.919 598.125 430.037 599.322 430.336C600.025 430.554 601.227 431.064 601.557 431.792C601.887 432.52 601.36 433.131 601.044 433.735C600.034 435.562 599.375 437.575 599.105 439.661Z" fill="#C0A2A7"/>
<path opacity="0.1" d="M600.25 351.202C599.889 351.585 599.586 352.022 599.351 352.498C596.933 357.048 596.905 362.486 596.793 367.677C596.666 373.501 596.357 379.325 596.048 385.185L595.128 402.657C595.036 404.324 594.952 405.991 594.72 407.644C593.638 407.928 593.596 409.384 593.715 410.556C594.495 417.676 596.428 425.007 594.418 431.857C594.34 432.209 594.178 432.534 593.947 432.804C594.968 432.472 596.059 432.457 597.088 432.76C598.093 432.978 599.062 433.364 600.074 433.604C601.353 433.903 602.801 434.034 603.672 435.06C604.659 431.983 605.446 428.841 606.026 425.655C606.504 422.743 606.637 419.743 607.775 417.05C608.232 415.965 608.85 414.96 609.413 413.919C612.357 408.474 613.804 402.322 615.216 396.251C615.85 393.372 616.002 390.403 615.666 387.471C615.462 386.134 615.344 384.784 615.315 383.431C615.4 382.002 615.581 380.582 615.856 379.179C616.453 375.063 616.172 370.861 615.034 366.869C613.98 363.163 613.052 359.261 610.818 356.145C608.583 353.029 603.981 351.253 600.25 351.202Z" fill="black"/>
<path d="M599.414 350.62C599.053 351.005 598.75 351.444 598.514 351.923C596.097 356.465 596.069 361.911 595.957 367.102C595.83 372.926 595.521 378.75 595.212 384.574L594.291 402.046C594.2 403.713 594.116 405.38 593.884 407.032C592.802 407.316 592.76 408.772 592.886 409.944C593.659 417.064 595.591 424.388 593.589 431.246C593.511 431.597 593.349 431.923 593.118 432.192C594.138 431.861 595.23 431.845 596.259 432.148C597.264 432.367 598.233 432.753 599.245 432.985C600.524 433.291 601.971 433.415 602.843 434.441C603.833 431.363 604.619 428.218 605.197 425.028C605.674 422.116 605.808 419.124 606.946 416.431C607.441 415.359 607.987 414.315 608.583 413.3C611.535 407.855 612.975 401.696 614.387 395.625C615.021 392.746 615.173 389.777 614.837 386.845C614.308 384.1 614.373 381.268 615.027 378.553C615.624 374.439 615.343 370.239 614.205 366.25C613.151 362.544 612.223 358.642 609.989 355.526C607.754 352.411 603.145 350.678 599.414 350.62Z" fill="#ABAEFF"/>
<g opacity="0.1">
<path opacity="0.1" d="M601.866 298.458C603.974 295.728 606.658 293.268 609.954 292.583C612.631 292.023 615.406 292.7 618.133 292.474C620.543 292.278 622.861 291.375 625.257 291.018C627.431 290.775 629.628 290.861 631.778 291.273C633.819 291.587 635.813 292.164 637.716 292.991C638.743 293.468 639.724 294.046 640.646 294.716C638.952 294.035 637.192 293.547 635.397 293.26C633.249 292.848 631.055 292.762 628.883 293.006C626.48 293.326 624.168 294.221 621.751 294.418C619.032 294.644 616.256 293.974 613.572 294.527C610.277 295.211 607.579 297.679 605.492 300.409C603.545 302.943 601.922 306.197 602.744 309.327C603.18 310.973 604.192 312.414 604.466 314.11C604.74 315.807 604.81 316.498 605.934 318.012C607.376 319.954 609.119 321.635 611.092 322.985C610.551 322.723 609.996 322.46 609.469 322.177C606.67 320.687 604.225 318.574 602.309 315.989C601.192 314.474 601.128 313.805 600.847 312.086C600.566 310.368 599.561 308.956 599.126 307.304C598.297 304.253 599.927 300.999 601.866 298.458Z" fill="black"/>
<path opacity="0.1" d="M614.584 325.402C614.293 325.089 613.976 324.804 613.636 324.55C615.259 325.365 616.966 326.079 618.21 327.462C619.763 329.144 620.318 331.575 620.402 333.905C620.486 336.234 620.086 338.549 620.037 340.872C619.968 343.97 620.471 347.054 621.519 349.957C622.447 352.527 623.789 354.907 624.836 357.434C626.051 360.346 626.867 363.447 627.963 366.424C631.475 375.825 637.713 383.866 645.817 389.444C645.859 389.538 645.894 389.64 645.937 389.735C636.052 384.234 628.393 375.25 624.344 364.408C623.248 361.43 622.433 358.336 621.21 355.41C620.163 352.891 618.821 350.503 617.894 347.933C616.845 345.033 616.342 341.951 616.411 338.855C616.467 336.525 616.84 334.21 616.776 331.881C616.713 329.551 616.137 327.076 614.584 325.402Z" fill="black"/>
</g>
<path opacity="0.1" d="M137.615 88.6559H92.8558C89.305 88.6559 86.4265 91.6382 86.4265 95.3171V124.219C86.4265 127.898 89.305 130.88 92.8558 130.88H137.615C141.166 130.88 144.044 127.898 144.044 124.219V95.3171C144.044 91.6382 141.166 88.6559 137.615 88.6559Z" fill="#ABAEFF"/>
<path opacity="0.1" d="M195.233 162.912H150.474C146.923 162.912 144.044 165.894 144.044 169.573V198.475C144.044 202.154 146.923 205.136 150.474 205.136H195.233C198.783 205.136 201.662 202.154 201.662 198.475V169.573C201.662 165.894 198.783 162.912 195.233 162.912Z" fill="#ABAEFF"/>
<path opacity="0.1" d="M674.443 95.9359H629.684C626.133 95.9359 623.255 98.9182 623.255 102.597V131.499C623.255 135.178 626.133 138.16 629.684 138.16H674.443C677.994 138.16 680.873 135.178 680.873 131.499V102.597C680.873 98.9182 677.994 95.9359 674.443 95.9359Z" fill="#ABAEFF"/>
</g>
<defs>
<linearGradient id="paint0_linear" x1="622.074" y1="586.688" x2="622.074" y2="288.281" gradientUnits="userSpaceOnUse">
<stop stop-color="#6D6D6D" stop-opacity="0.25"/>
<stop offset="0.54" stop-color="#808080" stop-opacity="0.12"/>
<stop offset="1" stop-color="#7C7C7C" stop-opacity="0.1"/>
</linearGradient>
<clipPath id="clip0">
<rect width="794" height="593" fill="white"/>
</clipPath>
</defs>
</svg>
