<svg width="65" height="60" viewBox="0 0 65 60" fill="none" xmlns="http://www.w3.org/2000/svg">
<rect width="11.5463" height="11.5463" transform="matrix(0.71991 -0.694067 0.71991 0.694067 24.2021 18.6805)" fill="#73CB2F"/>
<rect width="11.5463" height="11.5463" transform="matrix(0.71991 -0.694067 0.71991 0.694067 36.6489 31.3472)" fill="#73CB2F"/>
<rect width="11.5463" height="11.5463" transform="matrix(0.71991 -0.694067 0.71991 0.694067 11.0638 31.3472)" fill="#73CB2F"/>
<rect width="11.5463" height="11.5463" transform="matrix(0.71991 -0.694067 0.71991 0.694067 24.2021 43.3472)" fill="#73CB2F"/>
<ellipse cx="63.9628" cy="21.6667" rx="1.03723" ry="1" fill="#73CB2F"/>
<ellipse cx="1.03723" cy="41.6667" rx="1.03723" ry="1" fill="#73CB2F"/>
<ellipse cx="21.7819" cy="1" rx="1.03723" ry="1" fill="#73CB2F"/>
<ellipse cx="21.0904" cy="53.6667" rx="1.03724" ry="1" fill="#73CB2F"/>
<line y1="-0.5" x2="15.3683" y2="-0.5" transform="matrix(0.71991 -0.694067 0.71991 0.694067 32.5 30)" stroke="#00D1FF"/>
<line y1="-0.5" x2="17.0848" y2="-0.5" transform="matrix(-0.0167601 -0.99986 0.999879 -0.0155785 43.8502 19.0824)" stroke="#00D1FF"/>
<line y1="-0.5" x2="15.3683" y2="-0.5" transform="matrix(-0.71991 -0.694067 -0.71991 0.694067 32.7863 30)" stroke="#00D1FF"/>
<line y1="-0.5" x2="17.0848" y2="-0.5" transform="matrix(0.0167601 -0.99986 -0.999879 -0.0155785 21.4362 19.0824)" stroke="#00D1FF"/>
<line y1="-0.5" x2="15.3684" y2="-0.5" transform="matrix(0.71991 0.694067 0.71991 -0.694067 32.5 32)" stroke="#00D1FF"/>
<line y1="-0.5" x2="17.0848" y2="-0.5" transform="matrix(-0.0167601 0.99986 0.999879 0.0155785 43.8502 42.9176)" stroke="#00D1FF"/>
<line y1="-0.5" x2="15.3684" y2="-0.5" transform="matrix(-0.71991 0.694067 -0.71991 -0.694067 32.7863 32)" stroke="#00D1FF"/>
<line x1="21.9362" y1="42.6667" x2="21.9362" y2="52.6667" stroke="#00D1FF"/>
<line y1="-0.5" x2="15.3646" y2="-0.5" transform="matrix(0.715232 0.698887 -0.724553 0.689219 33.883 32)" stroke="#00D1FF"/>
<line y1="-0.5" x2="10.3736" y2="-0.5" transform="matrix(0.999879 -0.0155466 0.0167258 0.99986 44.9468 42.8279)" stroke="#00D1FF"/>
<line y1="-0.5" x2="15.3721" y2="-0.5" transform="matrix(0.724553 -0.689219 -0.715232 -0.698887 33.883 31.3333)" stroke="#00D1FF"/>
<line y1="-0.5" x2="17.721" y2="-0.5" transform="matrix(0.999757 0.0220557 0.0237278 -0.999718 44.9468 20.6667)" stroke="#00D1FF"/>
<line y1="-0.5" x2="15.3646" y2="-0.5" transform="matrix(-0.715232 0.698887 0.724553 0.689219 31.1907 31.3333)" stroke="#00D1FF"/>
<line y1="-0.5" x2="17.7212" y2="-0.5" transform="matrix(-0.999959 -0.00910086 -0.00979124 0.999952 19.7944 42.1613)" stroke="#00D1FF"/>
<line y1="-0.5" x2="15.3721" y2="-0.5" transform="matrix(-0.724553 -0.689219 0.715232 -0.698887 31.1907 30.6667)" stroke="#00D1FF"/>
<line x1="20.0532" y1="20.5" x2="9.68085" y2="20.5" stroke="#00D1FF"/>
</svg>
